<?xml version="1.0" standalone="no"?>
<!DOCTYPE svg PUBLIC "-//W3C//DTD SVG 20010904//EN"
 "http://www.w3.org/TR/2001/REC-SVG-20010904/DTD/svg10.dtd">
<svg version="1.0" xmlns="http://www.w3.org/2000/svg"
 width="60000.000000pt" height="60000.000000pt" viewBox="0 0 400.000000 400.000000"
 preserveAspectRatio="xMidYMid meet">

<g transform="translate(0.000000,400.000000) scale(0.100000,-0.100000)"
fill="#60a5fa" stroke="none">
<path d="M1894 3191 c-172 -28 -349 -126 -455 -252 -50 -60 -51 -61 -102 -158
-141 -268 -82 -629 139 -846 153 -151 376 -237 569 -220 319 28 571 229 665
530 33 107 38 266 11 377 -65 271 -277 487 -544 552 -81 20 -213 28 -283 17z"/>
<path d="M1730 1449 c-197 -23 -446 -92 -590 -164 -98 -49 -200 -117 -193
-129 3 -5 2 -6 -4 -3 -15 9 -95 -63 -89 -79 3 -8 0 -13 -6 -11 -14 3 -75 -95
-88 -143 -5 -19 -10 -134 -10 -255 l0 -221 68 -50 c105 -78 170 -116 183 -108
8 4 9 3 5 -4 -9 -15 225 -129 349 -170 227 -76 401 -104 645 -104 324 0 572
56 868 198 90 43 131 67 126 75 -4 8 -3 9 5 5 13 -8 76 29 189 112 l73 54 -3
241 -3 242 -29 58 c-17 32 -53 82 -81 112 -53 55 -196 154 -262 181 -21 9 -56
24 -78 34 -125 56 -353 110 -544 129 -120 13 -422 12 -531 0z"/>
</g>
</svg>
